<svg xmlns="http://www.w3.org/2000/svg" width="1200" height="700" viewBox="0 0 1200 700" fill="none">
  <defs>
    <linearGradient id="bg" x1="120" y1="60" x2="1060" y2="640" gradientUnits="userSpaceOnUse">
      <stop stop-color="#7C3AED" stop-opacity=".55"/>
      <stop offset=".55" stop-color="#22D3EE" stop-opacity=".35"/>
      <stop offset="1" stop-color="#A3FF5E" stop-opacity=".22"/>
    </linearGradient>
    <linearGradient id="card" x1="200" y1="160" x2="980" y2="560" gradientUnits="userSpaceOnUse">
      <stop stop-color="white" stop-opacity=".14"/>
      <stop offset="1" stop-color="white" stop-opacity=".06"/>
    </linearGradient>
  </defs>
  <rect x="0" y="0" width="1200" height="700" rx="44" fill="#0B1020"/>
  <rect x="70" y="70" width="1060" height="560" rx="40" fill="url(#bg)" opacity=".55"/>
  <rect x="110" y="110" width="980" height="480" rx="34" fill="url(#card)" stroke="rgba(255,255,255,.18)" stroke-width="2"/>
  <rect x="150" y="155" width="280" height="24" rx="12" fill="rgba(255,255,255,.22)"/>
  <rect x="150" y="200" width="420" height="14" rx="7" fill="rgba(255,255,255,.12)"/>
  <rect x="150" y="230" width="360" height="14" rx="7" fill="rgba(255,255,255,.10)"/>
  <rect x="150" y="260" width="400" height="14" rx="7" fill="rgba(255,255,255,.10)"/>
  <rect x="150" y="310" width="220" height="42" rx="18" fill="rgba(124,58,237,.75)"/>
  <rect x="390" y="310" width="180" height="42" rx="18" fill="rgba(255,255,255,.10)"/>
  <rect x="650" y="160" width="380" height="200" rx="26" fill="rgba(0,0,0,.22)" stroke="rgba(255,255,255,.16)" stroke-width="2"/>
  <path d="M680 320c55-70 110-92 155-55 45 37 75 32 130-18" stroke="rgba(255,255,255,.32)" stroke-width="6" stroke-linecap="round"/>
  <path d="M680 320c55-70 110-92 155-55 45 37 75 32 130-18" stroke="#22D3EE" stroke-opacity=".7" stroke-width="4" stroke-linecap="round"/>
  <rect x="650" y="390" width="380" height="170" rx="26" fill="rgba(0,0,0,.18)" stroke="rgba(255,255,255,.14)" stroke-width="2"/>
  <rect x="680" y="420" width="320" height="16" rx="8" fill="rgba(255,255,255,.12)"/>
  <rect x="680" y="450" width="280" height="16" rx="8" fill="rgba(255,255,255,.10)"/>
  <rect x="680" y="480" width="300" height="16" rx="8" fill="rgba(255,255,255,.10)"/>
  <rect x="680" y="515" width="210" height="28" rx="14" fill="rgba(163,255,94,.22)"/>
</svg>
